<svg width="14" height="14" viewBox="0 0 14 14" fill="none" xmlns="http://www.w3.org/2000/svg">
    <path d="M7.94 6.99996L13.4667 1.47329C13.5759 1.34576 13.633 1.18171 13.6265 1.01393C13.62 0.846141 13.5504 0.686982 13.4317 0.568252C13.313 0.449523 13.1538 0.379967 12.986 0.373487C12.8183 0.367006 12.6542 0.424077 12.5267 0.533294L7 6.05996L1.47334 0.526628C1.3478 0.401092 1.17754 0.330566 1 0.330566C0.822468 0.330566 0.652205 0.401092 0.526669 0.526628C0.401133 0.652163 0.330608 0.822426 0.330608 0.999961C0.330608 1.1775 0.401133 1.34776 0.526669 1.47329L6.06 6.99996L0.526669 12.5266C0.456881 12.5864 0.400201 12.6599 0.360186 12.7426C0.32017 12.8254 0.297683 12.9154 0.294137 13.0073C0.290591 13.0991 0.306061 13.1906 0.339577 13.2762C0.373094 13.3617 0.423932 13.4394 0.488902 13.5044C0.553872 13.5694 0.63157 13.6202 0.71712 13.6537C0.80267 13.6872 0.894225 13.7027 0.986038 13.6992C1.07785 13.6956 1.16794 13.6731 1.25065 13.6331C1.33336 13.5931 1.4069 13.5364 1.46667 13.4666L7 7.93996L12.5267 13.4666C12.6542 13.5758 12.8183 13.6329 12.986 13.6264C13.1538 13.62 13.313 13.5504 13.4317 13.4317C13.5504 13.3129 13.62 13.1538 13.6265 12.986C13.633 12.8182 13.5759 12.6542 13.4667 12.5266L7.94 6.99996Z" fill="black"/>
</svg>
