<svg width="114" height="114" viewBox="0 0 114 114" fill="none" xmlns="http://www.w3.org/2000/svg">
<g filter="url(#filter0_d)">
<circle cx="57" cy="55" r="49.5" fill="white" stroke="#E7E7E7"/>
<path d="M66.4534 36.249H40.5156C38.5766 36.249 37 37.8264 37 39.7647V58.5148C37 60.4539 38.5766 62.0305 40.5156 62.0305C42.9758 62.0305 43.3063 62.0305 43.3063 62.0305H44.0313V67.8899C44.0313 68.9353 45.2985 69.4517 46.0313 68.7189C49.3031 65.4462 47.0055 67.7446 52.3759 62.3742C52.5962 62.1539 52.8931 62.0305 53.2048 62.0305H66.4533C68.3916 62.0305 69.969 60.4539 69.969 58.5148C69.969 47.5726 69.969 50.7335 69.969 39.7647C69.969 37.8264 68.3917 36.249 66.4534 36.249ZM42.8595 43.2803H59.4222C60.0698 43.2803 60.594 43.8045 60.594 44.4522C60.594 45.0998 60.0698 45.624 59.4222 45.624H42.8595C42.2118 45.624 41.6876 45.0998 41.6876 44.4522C41.6876 43.8045 42.2118 43.2803 42.8595 43.2803ZM54.7346 54.9992H42.8595C42.2118 54.9992 41.6876 54.475 41.6876 53.8273C41.6876 53.1797 42.2118 52.6555 42.8595 52.6555H54.7346C55.3822 52.6555 55.9064 53.1797 55.9064 53.8273C55.9064 54.475 55.3822 54.9992 54.7346 54.9992ZM64.1097 50.3116H42.8595C42.2118 50.3116 41.6876 49.7874 41.6876 49.1398C41.6876 48.4921 42.2118 47.9679 42.8595 47.9679H64.1097C64.7573 47.9679 65.2815 48.4921 65.2815 49.1398C65.2815 49.7874 64.7573 50.3116 64.1097 50.3116Z" fill="#0D63A0"/>
<path d="M73.4839 40.9365H72.3277V58.5148C72.3277 61.7455 69.6834 64.3743 66.4526 64.3743H53.8457L51.3457 66.7024H61.2799L67.9678 73.406C68.7026 74.1408 69.9682 73.6251 69.9682 72.5775V66.7024H73.4839C75.4225 66.7024 76.9995 65.141 76.9995 63.2024V44.4522C76.9996 42.5136 75.4226 40.9365 73.4839 40.9365Z" fill="#0D63A0"/>
</g>
<defs>
<filter id="filter0_d" x="0" y="0" width="114" height="114" filterUnits="userSpaceOnUse" color-interpolation-filters="sRGB">
<feFlood flood-opacity="0" result="BackgroundImageFix"/>
<feColorMatrix in="SourceAlpha" type="matrix" values="0 0 0 0 0 0 0 0 0 0 0 0 0 0 0 0 0 0 127 0"/>
<feOffset dy="2"/>
<feGaussianBlur stdDeviation="3.5"/>
<feColorMatrix type="matrix" values="0 0 0 0 0 0 0 0 0 0 0 0 0 0 0 0 0 0 0.09 0"/>
<feBlend mode="normal" in2="BackgroundImageFix" result="effect1_dropShadow"/>
<feBlend mode="normal" in="SourceGraphic" in2="effect1_dropShadow" result="shape"/>
</filter>
</defs>
</svg>
