<svg width="40" height="40" viewBox="0 0 40 40" fill="none" xmlns="http://www.w3.org/2000/svg">
    <path d="M10.4 39.5H29.6C35.0676 39.5 39.5 35.0676 39.5 29.6V10.4C39.5 4.93238 35.0676 0.5 29.6 0.5H10.4C4.93238 0.5 0.5 4.93238 0.5 10.4V29.6C0.5 35.0676 4.93238 39.5 10.4 39.5Z" fill="black" stroke="black"/>
    <g clip-path="url(#clip0)">
        <path d="M25.7172 29.9997C25.7988 29.9997 29.4871 29.9989 29.4064 29.9989C29.7341 29.9989 30.0001 29.7329 30.0001 29.4052C29.7231 23.185 31.4584 16.6213 24.9826 16.6213C23.7373 16.6213 22.7453 17.0465 22.0304 17.6085C22.0304 16.4519 20.7804 17.0916 17.8948 16.9198C17.567 16.9198 17.301 17.1858 17.301 17.5135C17.5401 28.7283 16.7674 29.9989 17.8948 29.9989H21.5839C22.6551 29.9989 21.9734 28.4884 22.1777 23.5168C22.1777 21.4632 22.7714 21.061 23.7974 21.061C24.9327 21.061 25.1235 21.8495 25.1235 23.6165C25.3269 28.4987 24.6501 29.9997 25.7172 29.9997ZM23.7974 19.8735C20.2421 19.8735 20.9902 23.7828 20.9902 28.8114H18.4885V18.1073H20.8429V19.1349C20.8429 19.7049 21.7114 19.9851 22.0138 19.412C22.4033 18.6725 23.4151 17.8088 24.9826 17.8088C27.7748 17.8088 28.8126 19.1808 28.8126 22.8723V28.8122H26.311C26.311 23.1565 26.9095 19.8735 23.7974 19.8735V19.8735Z" fill="white"/>
        <path d="M11.8876 16.921C10.7635 16.921 11.533 18.1758 11.2939 29.4064C11.2939 29.7341 11.5599 30.0001 11.8876 30.0001H15.5807C16.7049 30.0001 15.9354 28.7453 16.1745 17.5148C16.1745 16.4896 14.6854 17.0944 11.8876 16.921V16.921ZM14.987 28.8126H12.4814V18.1085H14.987V28.8126Z" fill="white"/>
        <path d="M13.7341 11C10.1114 11 10.1336 16.4855 13.7341 16.4855C17.3322 16.4855 17.3607 11 13.7341 11ZM13.7341 15.298C11.7011 15.298 11.6821 12.1875 13.7341 12.1875C15.79 12.1875 15.7639 15.298 13.7341 15.298Z" fill="white"/>
    </g>
    <defs>
        <clipPath id="clip0">
            <rect width="19" height="19" fill="white" transform="translate(11 11)"/>
        </clipPath>
    </defs>
</svg>
