<svg width="24" height="24" viewBox="0 0 24 24" fill="none" xmlns="http://www.w3.org/2000/svg">
    <path d="M9.11722 10.295L10.7112 8.701C10.8042 8.60821 10.8779 8.49801 10.9282 8.37669C10.9785 8.25538 11.0044 8.12533 11.0044 7.994C11.0044 7.86267 10.9785 7.73262 10.9282 7.61131C10.8779 7.48999 10.8042 7.37979 10.7112 7.287L9.11722 10.295ZM20.6406 18.6302L20.6405 18.6303L17.9285 21.3423C17.569 21.7018 17.0954 21.899 16.5942 21.899H16.567C15.1513 21.876 10.2387 21.5011 6.36893 17.6313C2.49838 13.7607 2.12305 8.84703 2.1002 7.43238L2.00022 7.434L2.10021 7.4325C2.09262 6.92695 2.29575 6.43088 2.65693 6.06971L2.65694 6.0697L5.36689 3.35875C5.53938 3.19643 5.76733 3.10603 6.00422 3.10603C6.24111 3.10603 6.46906 3.19643 6.64155 3.35876L10.6405 7.35771L10.6406 7.35777C10.7242 7.44127 10.7906 7.54044 10.8358 7.64961C10.8811 7.75879 10.9044 7.87581 10.9044 7.994C10.9044 8.11219 10.8811 8.22921 10.8358 8.33839C10.7906 8.44756 10.7242 8.54673 10.6406 8.63023L10.6405 8.63029L9.04651 10.2243L9.00437 10.2664L9.02137 10.3235C9.24193 11.0644 9.74753 12.4647 10.6405 13.3577C11.5335 14.2507 12.9338 14.7563 13.6747 14.9768L13.7318 14.9938L13.7739 14.9517L15.3679 13.3577L15.368 13.3576C15.4515 13.274 15.5507 13.2077 15.6598 13.1624C15.769 13.1171 15.886 13.0938 16.0042 13.0938C16.1224 13.0938 16.2394 13.1171 16.3486 13.1624C16.4578 13.2077 16.5569 13.274 16.6404 13.3576L16.6405 13.3577L20.6405 17.3577L20.6406 17.3578C20.7242 17.4413 20.7906 17.5404 20.8358 17.6496C20.8811 17.7588 20.9044 17.8758 20.9044 17.994C20.9044 18.1122 20.8811 18.2292 20.8358 18.3384C20.7906 18.4476 20.7242 18.5467 20.6406 18.6302ZM6.07593 5.33729L6.00522 5.26658L5.93451 5.33729L3.92951 7.34229L3.89954 7.37226L3.90023 7.41464C3.92038 8.64689 4.24802 12.9642 7.64151 16.3577C11.0239 19.7411 15.3262 20.0778 16.5835 20.099L16.6259 20.0997L16.6559 20.0697L18.6619 18.0647L18.7327 17.994L18.6619 17.9233L16.0759 15.3373L16.0052 15.2666L15.9345 15.3373L14.6415 16.6303L14.6413 16.6305C14.5359 16.7364 14.4056 16.8143 14.2623 16.8568C14.119 16.8994 13.9673 16.9054 13.8211 16.8742L13.8206 16.8741C13.7666 16.8628 13.062 16.7115 12.1654 16.357C11.2675 16.002 10.1851 15.4465 9.36893 14.6303C8.55276 13.8141 7.99718 12.7317 7.64221 11.8339C7.28773 10.9372 7.13639 10.2326 7.12511 10.1786L7.12504 10.1782C7.09401 10.032 7.10006 9.88033 7.14264 9.73703C7.18522 9.59374 7.26298 9.46337 7.36883 9.35781L7.36893 9.35771L8.66193 8.06471L8.73264 7.994L8.66193 7.92329L6.07593 5.33729ZM13.0892 2.10049C18.0879 2.14998 21.8491 5.90741 21.8987 10.899H20.0986C20.0509 6.87248 17.1214 3.94817 13.0892 3.90059V2.10049Z" fill="black" stroke="#EEEEEE" stroke-width="0.2"/>
    <path d="M13.098 7.90068V6.10058C14.6438 6.1186 15.8312 6.55585 16.6367 7.36134C17.4422 8.16682 17.8795 9.35422 17.8975 10.9H16.0974C16.0834 9.88787 15.8555 9.13877 15.3574 8.64066C14.8593 8.14256 14.1102 7.9146 13.098 7.90068Z" fill="black" stroke="#EEEEEE" stroke-width="0.2"/>
</svg>
