<svg width="40" height="40" viewBox="0 0 40 40" fill="none" xmlns="http://www.w3.org/2000/svg">
    <path d="M10.4 39.5H29.6C35.0676 39.5 39.5 35.0676 39.5 29.6V10.4C39.5 4.93238 35.0676 0.5 29.6 0.5H10.4C4.93238 0.5 0.5 4.93238 0.5 10.4V29.6C0.5 35.0676 4.93238 39.5 10.4 39.5Z" fill="black" stroke="black"/>
    <path d="M17.636 30.2397H21.4976C21.8288 30.2397 22.0976 29.9199 22.0976 29.5999V20.8796H24.104C24.4112 20.8796 24.6696 20.6399 24.7008 20.3999L25.0392 17.1202C25.0568 16.8802 25.0016 16.7197 24.888 16.6397C24.7736 16.4797 24.612 16.3999 24.4424 16.3999H22.0976V15.1202C22.0976 14.8002 22.1848 14.7999 22.3176 14.7999H24.3936C24.7248 14.7999 24.9936 14.5601 24.9936 14.1601V11.0397C24.9936 10.7197 24.7264 10.3999 24.396 10.3999H21.5328C19.5264 10.3999 18.4552 11.2799 17.9104 11.9999C17.1496 13.0399 17.036 14.2396 17.036 14.8796V16.3999H15.7992C15.468 16.3999 15.1992 16.7197 15.1992 17.0397V20.3202C15.1992 20.6402 15.468 20.8796 15.7992 20.8796H17.036V29.5999C17.036 29.9199 17.3048 30.2397 17.636 30.2397ZM16.3992 19.6796V17.5999H17.636C17.9672 17.5999 18.236 17.3597 18.236 17.0397V14.8796C18.236 14.4796 18.2984 13.5202 18.8768 12.7202C19.4304 12.0002 20.324 11.5999 21.5304 11.5999H23.7936V13.5999H22.3168C21.6104 13.5999 20.8976 14.0802 20.8976 15.1202V17.0397C20.8976 17.3597 21.1664 17.5999 21.4976 17.5999H23.7768L23.5624 19.6796H21.4976C21.1664 19.6796 20.8976 20.0002 20.8976 20.3202V28.9601H18.236V20.3202C18.236 20.0002 17.9672 19.6796 17.636 19.6796H16.3992Z" fill="white"/>
</svg>
