<svg width="40" height="40" viewBox="0 0 40 40" fill="none" xmlns="http://www.w3.org/2000/svg">
    <path d="M10.4 39.5H29.6C35.0676 39.5 39.5 35.0676 39.5 29.6V10.4C39.5 4.93238 35.0676 0.5 29.6 0.5H10.4C4.93238 0.5 0.5 4.93238 0.5 10.4V29.6C0.5 35.0676 4.93238 39.5 10.4 39.5Z" fill="black" stroke="black"/>
    <path d="M11.5045 19.4397L15.8085 21.5201C15.9749 21.6001 16.1717 21.6001 16.3309 21.5201L20.1621 19.2795L17.8428 21.36C17.7252 21.44 17.6572 21.6 17.6572 21.76V26.7998C17.6572 27.2798 18.3317 27.5201 18.6477 27.1201L20.5076 24.6397L25.1085 27.2795C25.4317 27.4395 25.8453 27.2795 25.9197 26.8795L28.7893 12.56C28.8749 12.16 28.4477 11.8398 28.0501 11.9998L11.5501 18.3998C11.1077 18.5598 11.0789 19.1997 11.5045 19.4397ZM27.5133 13.36L24.9917 25.9201L20.6317 23.4397C20.3941 23.2797 20.0885 23.3598 19.9197 23.5998L18.7572 25.1201V21.9998L25.0284 16.4795C25.5244 15.9995 24.954 15.2798 24.3868 15.5998L16.0349 20.3998L13.1069 18.96L27.5133 13.36Z" fill="white"/>
</svg>
