<svg width="40" height="40" viewBox="0 0 40 40" fill="none" xmlns="http://www.w3.org/2000/svg">
    <path d="M10.4 39.5H29.6C35.0676 39.5 39.5 35.0676 39.5 29.6V10.4C39.5 4.93238 35.0676 0.5 29.6 0.5H10.4C4.93238 0.5 0.5 4.93238 0.5 10.4V29.6C0.5 35.0676 4.93238 39.5 10.4 39.5Z" fill="black" stroke="black"/>
    <path d="M25.0012 10.3999H14.9996C12.4636 10.3999 10.4004 12.4801 10.4004 14.9601V25.0397C10.4004 27.5197 12.4636 29.5999 14.9996 29.5999H25.0012C27.5372 29.5999 29.6004 27.5197 29.6004 25.0397V14.9601C29.6004 12.4801 27.5372 10.3999 25.0012 10.3999ZM28.3892 25.0397C28.3892 26.8797 26.8692 28.3999 25.0012 28.3999H14.9996C13.1316 28.3999 11.6116 26.8797 11.6116 25.0397V14.9601C11.6116 13.1201 13.1316 11.5999 14.9996 11.5999H25.0012C26.8692 11.5999 28.3892 13.1201 28.3892 14.9601V25.0397Z" fill="white"/>
    <path d="M20.0005 15.2798C17.4053 15.2798 15.2949 17.4401 15.2949 20.0001C15.2949 22.5601 17.4053 24.7204 20.0005 24.7204C22.5957 24.7204 24.7069 22.5601 24.7069 20.0001C24.7069 17.4401 22.5957 15.2798 20.0005 15.2798ZM20.0005 23.5204C18.0733 23.5204 16.5053 21.9201 16.5053 20.0001C16.5053 18.0801 18.0733 16.4798 20.0005 16.4798C21.9277 16.4798 23.4949 18.0801 23.4949 20.0001C23.4949 21.9201 21.9277 23.5204 20.0005 23.5204Z" fill="white"/>
</svg>
