<svg width="40" height="40" viewBox="0 0 40 40" fill="none" xmlns="http://www.w3.org/2000/svg">
    <path d="M10.4 39.5H29.6C35.0676 39.5 39.5 35.0676 39.5 29.6V10.4C39.5 4.93238 35.0676 0.5 29.6 0.5H10.4C4.93238 0.5 0.5 4.93238 0.5 10.4V29.6C0.5 35.0676 4.93238 39.5 10.4 39.5Z" fill="black" stroke="black"/>
    <g clip-path="url(#clip0)">
        <path d="M22.4246 19.6461L18.227 17.3493C17.9857 17.2173 17.7004 17.2222 17.4638 17.3624C17.2271 17.5027 17.0859 17.7506 17.0859 18.0257V22.5797C17.0859 22.8536 17.2263 23.101 17.4614 23.2415C17.5842 23.3148 17.7203 23.3516 17.8567 23.3516C17.9816 23.3516 18.1069 23.3208 18.2221 23.2587L22.4198 21.0016C22.669 20.8675 22.8245 20.6084 22.8257 20.3253C22.8267 20.0422 22.6731 19.782 22.4246 19.6461ZM18.1994 22.0069V18.6032L21.3365 20.3198L18.1994 22.0069Z" fill="white"/>
        <path d="M28.8603 16.6973L28.8594 16.6886C28.8433 16.5357 28.6831 15.1754 28.0218 14.4835C27.2575 13.6697 26.3909 13.5708 25.9741 13.5234C25.9396 13.5195 25.908 13.5159 25.8798 13.5121L25.8466 13.5087C23.3347 13.326 19.5413 13.3011 19.5033 13.3009L19.5 13.3008L19.4967 13.3009C19.4587 13.3011 15.6653 13.326 13.1308 13.5087L13.0973 13.5121C13.0704 13.5158 13.0406 13.5191 13.0083 13.5229C12.5964 13.5704 11.7391 13.6694 10.9725 14.5126C10.3427 15.1971 10.1606 16.5283 10.1419 16.6779L10.1397 16.6973C10.1341 16.7609 10 18.2759 10 19.7968V21.2186C10 22.7395 10.1341 24.2544 10.1397 24.3182L10.1408 24.3278C10.1568 24.4782 10.3169 25.8136 10.9751 26.5058C11.6938 27.2923 12.6026 27.3964 13.0914 27.4524C13.1686 27.4612 13.2352 27.4687 13.2806 27.4767L13.3245 27.4828C14.7748 27.6208 19.322 27.6888 19.5148 27.6915L19.5206 27.6917L19.5264 27.6915C19.5644 27.6914 23.3576 27.6665 25.8695 27.4838L25.9027 27.4803C25.9344 27.4761 25.9701 27.4724 26.0092 27.4683C26.4189 27.4248 27.2715 27.3345 28.0275 26.5027C28.6573 25.8181 28.8395 24.4869 28.8581 24.3375L28.8603 24.3181C28.8659 24.2543 29.0001 22.7395 29.0001 21.2186V19.7968C29 18.2759 28.8659 16.7611 28.8603 16.6973ZM27.8866 21.2186C27.8866 22.6263 27.7636 24.076 27.7521 24.2091C27.7048 24.5757 27.5127 25.4179 27.2058 25.7514C26.7327 26.272 26.2467 26.3236 25.8918 26.3611C25.8489 26.3656 25.8092 26.37 25.7732 26.3744C23.3437 26.5501 19.6935 26.5771 19.5254 26.5781C19.3368 26.5754 14.8561 26.5068 13.45 26.3762C13.378 26.3644 13.3001 26.3555 13.2181 26.3462C12.8019 26.2985 12.2322 26.2333 11.7942 25.7514L11.7839 25.7404C11.4823 25.4263 11.2958 24.6387 11.2484 24.2134C11.2395 24.1128 11.1134 22.646 11.1134 21.2186V19.7968C11.1134 18.3907 11.2361 16.9426 11.2479 16.8067C11.3043 16.3749 11.5 15.5837 11.7942 15.264C12.2818 14.7276 12.796 14.6682 13.136 14.6289C13.1685 14.6251 13.1988 14.6216 13.2268 14.618C15.6917 14.4415 19.3681 14.4152 19.5 14.4142C19.6319 14.4151 23.307 14.4415 25.75 14.618C25.78 14.6218 25.8128 14.6256 25.848 14.6296C26.1978 14.6695 26.7265 14.7298 27.2116 15.2473L27.2161 15.2521C27.5177 15.5662 27.7042 16.3675 27.7516 16.8014C27.76 16.8963 27.8866 18.3664 27.8866 19.7968V21.2186Z" fill="white"/>
    </g>
    <defs>
        <clipPath id="clip0">
            <rect width="19.0001" height="19" fill="white" transform="translate(10 11)"/>
        </clipPath>
    </defs>
</svg>
