<svg width="40" height="200" viewBox="0 0 40 200" fill="none" xmlns="http://www.w3.org/2000/svg">
    <path d="M10.4 79.5H29.6C35.0676 79.5 39.5 75.0676 39.5 69.6V50.4C39.5 44.9324 35.0676 40.5 29.6 40.5H10.4C4.93238 40.5 0.5 44.9324 0.5 50.4V69.6C0.5 75.0676 4.93238 79.5 10.4 79.5Z" fill="black" stroke="black"/>
    <path d="M17.636 70.2397H21.4976C21.8288 70.2397 22.0976 69.9199 22.0976 69.5999V60.8796H24.104C24.4112 60.8796 24.6696 60.6399 24.7008 60.3999L25.0392 57.1202C25.0568 56.8802 25.0016 56.7197 24.888 56.6397C24.7736 56.4797 24.612 56.3999 24.4424 56.3999H22.0976V55.1202C22.0976 54.8002 22.1848 54.7999 22.3176 54.7999H24.3936C24.7248 54.7999 24.9936 54.5601 24.9936 54.1601V51.0397C24.9936 50.7197 24.7264 50.3999 24.396 50.3999H21.5328C19.5264 50.3999 18.4552 51.2799 17.9104 51.9999C17.1496 53.0399 17.036 54.2396 17.036 54.8796V56.3999H15.7992C15.468 56.3999 15.1992 56.7197 15.1992 57.0397V60.3202C15.1992 60.6402 15.468 60.8796 15.7992 60.8796H17.036V69.5999C17.036 69.9199 17.3048 70.2397 17.636 70.2397ZM16.3992 59.6796V57.5999H17.636C17.9672 57.5999 18.236 57.3597 18.236 57.0397V54.8796C18.236 54.4796 18.2984 53.5202 18.8768 52.7202C19.4304 52.0002 20.324 51.5999 21.5304 51.5999H23.7936V53.5999H22.3168C21.6104 53.5999 20.8976 54.0802 20.8976 55.1202V57.0397C20.8976 57.3597 21.1664 57.5999 21.4976 57.5999H23.7768L23.5624 59.6796H21.4976C21.1664 59.6796 20.8976 60.0002 20.8976 60.3202V68.9601H18.236V60.3202C18.236 60.0002 17.9672 59.6796 17.636 59.6796H16.3992Z" fill="white"/>
    <path d="M10.4 159.5H29.6C35.0676 159.5 39.5 155.068 39.5 149.6V130.4C39.5 124.932 35.0676 120.5 29.6 120.5H10.4C4.93238 120.5 0.5 124.932 0.5 130.4V149.6C0.5 155.068 4.93238 159.5 10.4 159.5Z" fill="black" stroke="black"/>
    <g clip-path="url(#clip0)">
        <path d="M29.4301 149.999C29.7469 149.986 30.0001 149.725 30.0001 149.405C29.9451 148.169 29.9695 146.919 29.9932 145.709C30.0885 140.835 30.1709 136.622 24.9826 136.622C23.7658 136.622 22.7909 137.027 22.08 137.57L29.4301 149.999ZM29.4301 149.999C29.429 149.97 29.4082 149.949 29.4078 149.949L29.4076 149.949L29.4075 149.949L29.4301 149.999ZM29.3853 149.999C29.3848 149.984 29.3899 149.967 29.4064 149.95V149.999L29.3853 149.999ZM29.9432 145.707C29.9195 146.917 29.895 148.168 29.9501 149.407C29.9496 149.706 29.7064 149.949 29.4069 149.949C29.4067 149.949 29.4066 149.949 29.4064 149.949L29.4031 149.949L29.3791 149.949L29.2744 149.949L28.8755 149.949L27.6227 149.95L25.7172 149.95C25.5893 149.95 25.4931 149.927 25.4194 149.883C25.3465 149.839 25.2908 149.771 25.2491 149.67C25.1638 149.464 25.1412 149.134 25.1465 148.64C25.1491 148.384 25.1591 148.088 25.1707 147.745C25.2035 146.769 25.2488 145.423 25.1735 143.616C25.1734 142.734 25.1264 142.085 24.9317 141.656C24.8334 141.439 24.6966 141.276 24.5084 141.169C24.3209 141.061 24.0867 141.011 23.7974 141.011C23.279 141.011 22.8542 141.113 22.5633 141.488C22.2758 141.86 22.1278 142.488 22.1277 143.516C22.0519 145.36 22.098 146.73 22.1314 147.721C22.143 148.067 22.1531 148.366 22.1559 148.623C22.1614 149.124 22.1391 149.458 22.0536 149.667C22.0117 149.769 21.9559 149.837 21.8827 149.882C21.8088 149.926 21.7123 149.949 21.5839 149.949H17.8948C17.7574 149.949 17.6578 149.93 17.5826 149.881C17.5086 149.833 17.4507 149.751 17.4078 149.611C17.3647 149.47 17.3384 149.274 17.3245 149.003C17.3106 148.733 17.3092 148.392 17.3148 147.963C17.3194 147.611 17.3286 147.2 17.3394 146.721C17.3812 144.861 17.4461 141.973 17.351 137.513C17.3513 137.214 17.594 136.971 17.8933 136.97C18.6162 137.013 19.2365 137.005 19.76 136.987C19.9417 136.981 20.1111 136.974 20.2689 136.967C20.5677 136.954 20.8249 136.943 21.0443 136.945C21.3811 136.948 21.6139 136.983 21.7628 137.079C21.9054 137.172 21.9804 137.329 21.9804 137.609V137.712L22.0613 137.648C22.768 137.092 23.7492 136.672 24.9826 136.672C26.593 136.672 27.6849 137.079 28.4252 137.781C29.1664 138.483 29.5623 139.485 29.7666 140.689C29.9709 141.893 29.9825 143.293 29.9599 144.783C29.9553 145.088 29.9493 145.396 29.9432 145.707ZM20.9902 148.862H21.0402V148.812C21.0402 148.03 21.0221 147.273 21.0049 146.556C20.9944 146.12 20.9843 145.698 20.9788 145.293C20.9643 144.22 20.982 143.263 21.1099 142.465C21.2379 141.666 21.4753 141.032 21.8948 140.598C22.3128 140.165 22.9182 139.924 23.7974 139.924C24.5664 139.924 25.0977 140.126 25.4671 140.51C25.8381 140.895 26.0527 141.47 26.1718 142.23C26.2908 142.989 26.3133 143.926 26.3059 145.029C26.3028 145.475 26.2949 145.949 26.2865 146.449C26.2742 147.182 26.261 147.972 26.261 148.812V148.862H26.311H28.8126H28.8626V148.812V142.873C28.8626 141.025 28.6035 139.745 27.9846 138.926C27.3626 138.104 26.3863 137.759 24.9826 137.759C23.3956 137.759 22.3673 138.634 21.9696 139.389C21.8315 139.651 21.5654 139.719 21.3281 139.654C21.0889 139.589 20.8929 139.392 20.8929 139.135V138.108V138.058H20.8429H18.4885H18.4385V138.108V148.812V148.862H18.4885H20.9902Z" fill="white" stroke="black" stroke-width="0.1"/>
        <path d="M14.987 148.863H15.037V148.813V138.109V138.059H14.987H12.4814H12.4314V138.109V148.813V148.863H12.4814H14.987ZM11.3439 149.407C11.4389 144.942 11.3746 142.053 11.3332 140.194C11.3225 139.714 11.3133 139.303 11.3088 138.952C11.3033 138.522 11.3048 138.182 11.3187 137.913C11.3327 137.643 11.359 137.448 11.402 137.307C11.4448 137.167 11.5025 137.087 11.5763 137.039C11.651 136.991 11.7499 136.971 11.8861 136.971C12.8574 137.031 13.6748 136.998 14.3231 136.971C14.6088 136.959 14.8616 136.949 15.0803 136.948C15.4418 136.948 15.7044 136.974 15.876 137.059C15.9601 137.1 16.021 137.155 16.0615 137.227C16.1022 137.299 16.1244 137.392 16.1245 137.514C16.0295 141.979 16.0938 144.868 16.1352 146.727C16.1459 147.207 16.155 147.618 16.1595 147.97C16.165 148.399 16.1636 148.739 16.1497 149.008C16.1357 149.278 16.1094 149.473 16.0663 149.614C16.0236 149.754 15.9659 149.835 15.8921 149.882C15.8171 149.931 15.7177 149.95 15.5807 149.95H11.8876C11.5877 149.95 11.3442 149.707 11.3439 149.407Z" fill="white" stroke="black" stroke-width="0.1"/>
        <path d="M13.7341 136.435C12.8478 136.435 12.1852 136.098 11.7432 135.595C11.3005 135.091 11.0768 134.418 11.0754 133.743C11.074 133.067 11.295 132.394 11.737 131.89C12.1782 131.387 12.8422 131.05 13.7341 131.05C14.627 131.05 15.2913 131.387 15.7325 131.89C16.1745 132.394 16.3951 133.067 16.3934 133.743C16.3916 134.418 16.1675 135.091 15.7245 135.595C15.2823 136.098 14.6198 136.435 13.7341 136.435ZM13.7341 132.138C13.2073 132.138 12.8098 132.338 12.5449 132.641C12.2808 132.943 12.151 133.344 12.1522 133.743C12.1534 134.142 12.2857 134.543 12.5503 134.845C12.8157 135.148 13.2119 135.348 13.7341 135.348C14.2555 135.348 14.6516 135.148 14.9171 134.845C15.1819 134.543 15.3146 134.142 15.3163 133.743C15.3179 133.344 15.1886 132.943 14.9245 132.641C14.6596 132.338 14.2618 132.138 13.7341 132.138Z" fill="white" stroke="black" stroke-width="0.1"/>
    </g>
    <path d="M10.4 119.5H29.6C35.0676 119.5 39.5 115.068 39.5 109.6V90.4C39.5 84.9324 35.0676 80.5 29.6 80.5H10.4C4.93238 80.5 0.5 84.9324 0.5 90.4V109.6C0.5 115.068 4.93238 119.5 10.4 119.5Z" fill="black" stroke="black"/>
    <path d="M25.0012 90.3999H14.9996C12.4636 90.3999 10.4004 92.4801 10.4004 94.9601V105.04C10.4004 107.52 12.4636 109.6 14.9996 109.6H25.0012C27.5372 109.6 29.6004 107.52 29.6004 105.04V94.9601C29.6004 92.4801 27.5372 90.3999 25.0012 90.3999ZM28.3892 105.04C28.3892 106.88 26.8692 108.4 25.0012 108.4H14.9996C13.1316 108.4 11.6116 106.88 11.6116 105.04V94.9601C11.6116 93.1201 13.1316 91.5999 14.9996 91.5999H25.0012C26.8692 91.5999 28.3892 93.1201 28.3892 94.9601V105.04Z" fill="white"/>
    <path d="M20.0005 95.2798C17.4053 95.2798 15.2949 97.4401 15.2949 100C15.2949 102.56 17.4053 104.72 20.0005 104.72C22.5957 104.72 24.7069 102.56 24.7069 100C24.7069 97.4401 22.5957 95.2798 20.0005 95.2798ZM20.0005 103.52C18.0733 103.52 16.5053 101.92 16.5053 100C16.5053 98.0801 18.0733 96.4798 20.0005 96.4798C21.9277 96.4798 23.4949 98.0801 23.4949 100C23.4949 101.92 21.9277 103.52 20.0005 103.52Z" fill="white"/>
    <path d="M10.4 199.5H29.6C35.0676 199.5 39.5 195.068 39.5 189.6V170.4C39.5 164.932 35.0676 160.5 29.6 160.5H10.4C4.93238 160.5 0.5 164.932 0.5 170.4V189.6C0.5 195.068 4.93238 199.5 10.4 199.5Z" fill="black" stroke="black"/>
    <g clip-path="url(#clip1)">
        <path d="M22.4246 179.646L18.227 177.35C17.9857 177.218 17.7004 177.222 17.4638 177.363C17.2271 177.503 17.0859 177.751 17.0859 178.026V182.58C17.0859 182.854 17.2263 183.101 17.4614 183.242C17.5842 183.315 17.7203 183.352 17.8567 183.352C17.9816 183.352 18.1069 183.321 18.2221 183.259L22.4198 181.002C22.669 180.868 22.8245 180.609 22.8257 180.326C22.8267 180.042 22.6731 179.782 22.4246 179.646ZM18.1994 182.007V178.603L21.3365 180.32L18.1994 182.007Z" fill="white"/>
        <path d="M28.8603 176.697L28.8594 176.689C28.8433 176.536 28.6831 175.175 28.0218 174.483C27.2575 173.67 26.3909 173.571 25.9741 173.523C25.9396 173.52 25.908 173.516 25.8798 173.512L25.8466 173.509C23.3347 173.326 19.5413 173.301 19.5033 173.301L19.5 173.301L19.4967 173.301C19.4587 173.301 15.6653 173.326 13.1308 173.509L13.0973 173.512C13.0704 173.516 13.0406 173.519 13.0083 173.523C12.5964 173.57 11.7391 173.669 10.9725 174.513C10.3427 175.197 10.1606 176.528 10.1419 176.678L10.1397 176.697C10.1341 176.761 10 178.276 10 179.797V181.219C10 182.739 10.1341 184.254 10.1397 184.318L10.1408 184.328C10.1568 184.478 10.3169 185.814 10.9751 186.506C11.6938 187.292 12.6026 187.396 13.0914 187.452C13.1686 187.461 13.2352 187.469 13.2806 187.477L13.3245 187.483C14.7748 187.621 19.322 187.689 19.5148 187.692L19.5206 187.692L19.5264 187.692C19.5644 187.691 23.3576 187.666 25.8695 187.484L25.9027 187.48C25.9344 187.476 25.9701 187.472 26.0092 187.468C26.4189 187.425 27.2715 187.335 28.0275 186.503C28.6573 185.818 28.8395 184.487 28.8581 184.337L28.8603 184.318C28.8659 184.254 29.0001 182.739 29.0001 181.219V179.797C29 178.276 28.8659 176.761 28.8603 176.697ZM27.8866 181.219C27.8866 182.626 27.7636 184.076 27.7521 184.209C27.7048 184.576 27.5127 185.418 27.2058 185.751C26.7327 186.272 26.2467 186.324 25.8918 186.361C25.8489 186.366 25.8092 186.37 25.7732 186.374C23.3437 186.55 19.6935 186.577 19.5254 186.578C19.3368 186.575 14.8561 186.507 13.45 186.376C13.378 186.364 13.3001 186.355 13.2181 186.346C12.8019 186.298 12.2322 186.233 11.7942 185.751L11.7839 185.74C11.4823 185.426 11.2958 184.639 11.2484 184.213C11.2395 184.113 11.1134 182.646 11.1134 181.219V179.797C11.1134 178.391 11.2361 176.943 11.2479 176.807C11.3043 176.375 11.5 175.584 11.7942 175.264C12.2818 174.728 12.796 174.668 13.136 174.629C13.1685 174.625 13.1988 174.622 13.2268 174.618C15.6917 174.441 19.3681 174.415 19.5 174.414C19.6319 174.415 23.307 174.441 25.75 174.618C25.78 174.622 25.8128 174.626 25.848 174.63C26.1978 174.669 26.7265 174.73 27.2116 175.247L27.2161 175.252C27.5177 175.566 27.7042 176.368 27.7516 176.801C27.76 176.896 27.8866 178.366 27.8866 179.797V181.219Z" fill="white"/>
    </g>
    <path d="M10.4 39.5H29.6C35.0676 39.5 39.5 35.0676 39.5 29.6V10.4C39.5 4.93238 35.0676 0.5 29.6 0.5H10.4C4.93238 0.5 0.5 4.93238 0.5 10.4V29.6C0.5 35.0676 4.93238 39.5 10.4 39.5Z" fill="black" stroke="black"/>
    <path d="M11.5045 19.4397L15.8085 21.5201C15.9749 21.6001 16.1717 21.6001 16.3309 21.5201L20.1621 19.2795L17.8428 21.36C17.7252 21.44 17.6572 21.6 17.6572 21.76V26.7998C17.6572 27.2798 18.3317 27.5201 18.6477 27.1201L20.5076 24.6397L25.1085 27.2795C25.4317 27.4395 25.8453 27.2795 25.9197 26.8795L28.7893 12.56C28.8749 12.16 28.4477 11.8398 28.0501 11.9998L11.5501 18.3998C11.1077 18.5598 11.0789 19.1997 11.5045 19.4397ZM27.5133 13.36L24.9917 25.9201L20.6317 23.4397C20.3941 23.2797 20.0885 23.3598 19.9197 23.5998L18.7572 25.1201V21.9998L25.0284 16.4795C25.5244 15.9995 24.954 15.2798 24.3868 15.5998L16.0349 20.3998L13.1069 18.96L27.5133 13.36Z" fill="white"/>
    <defs>
        <clipPath id="clip0">
            <rect width="19" height="19" fill="white" transform="translate(11 131)"/>
        </clipPath>
        <clipPath id="clip1">
            <rect width="19.0001" height="19" fill="white" transform="translate(10 171)"/>
        </clipPath>
    </defs>
</svg>
